<svg xmlns="http://www.w3.org/2000/svg" viewBox="0 0 1500 1500">
  <defs>
    <style>
      :root {
        --logo-text: #1e1c1c;
        --logo-bg-match: transparent;
        --logo-accent: #4b58ff;
      }
      @media (prefers-color-scheme: dark) {
        :root {
          --logo-text: #f1eded;
        }
      }
    </style>
    <clipPath id="b">
      <path d="M.8.36H1130v1373.76H.8Zm0 0" />
    </clipPath>
    <clipPath id="c">
      <path d="M0 0h1130v1375H0z" />
    </clipPath>
    <clipPath id="d">
      <path d="M755.813 788.875h154.964v276.23H755.812Zm0 0" />
    </clipPath>
    <clipPath id="f">
      <path d="M.813.875h154.964V277H.813Zm0 0" />
    </clipPath>
    <clipPath id="e">
      <path d="M0 0h156v278H0z" />
    </clipPath>
    <clipPath id="g">
      <path d="M736.254 171.012h194.082V424H736.254Zm0 0" />
    </clipPath>
    <clipPath id="h">
      <path d="M801.8 171.012h128.536L864.789 423.89H736.254Zm0 0" />
    </clipPath>
    <clipPath id="j">
      <path d="M.254.012h194.082V252.96H.254Zm0 0" />
    </clipPath>
    <clipPath id="k">
      <path d="M65.8.012h128.536L128.789 252.89H.254Zm0 0" />
    </clipPath>
    <clipPath id="i">
      <path d="M0 0h195v253H0z" />
    </clipPath>
    <clipPath id="a">
      <path d="M0 0h1130v1375H0z" />
    </clipPath>
  </defs>
  <g clip-path="url(#a)" transform="translate(172 57)">
    <g clip-path="url(#b)">
      <g clip-path="url(#c)" fill="var(--logo-text)">
        <path d="M82.428 1013.102V311.258H226.6V694.43h36.984c30.344 0 53.258-4.898 68.75-14.703q23.25-14.7 37.47-56.437l35.093-108.11h155.531l-57.844 158.375q-23.704 66.393-63.546 101.485l143.202 238.062H414.38L304.366 823.415H226.6v189.687Zm0 0" />
        <path d="M829.718 1026.383q-82.517 0-145.593-33.187-63.063-33.2-98.641-92.485-35.565-59.28-35.563-137.046-.002-77.765 35.563-136.563 35.578-58.812 98.64-92 63.077-33.201 145.594-33.203 82.513.002 145.578 33.203 63.06 33.188 98.157 92 35.092 58.798 35.093 136.563-.001 77.766-35.093 137.046-35.099 59.286-98.157 92.485-63.065 33.186-145.578 33.186M692.187 763.665q-.001 60.703 38.406 99.593 38.421 38.876 99.125 38.875 60.703.001 98.64-38.875 37.937-38.89 37.938-99.593-.002-61.654-37.937-100.063-37.939-38.405-98.64-38.406-60.705.001-99.126 38.406-38.407 38.408-38.406 100.063m0 0" />
      </g>
    </g>
    <g clip-path="url(#d)">
      <g clip-path="url(#e)" transform="translate(755 788)">
        <g clip-path="url(#f)">
          <path fill="var(--logo-bg-match)" d="M.813.875h154.964V276.91H.813Zm0 0" />
        </g>
      </g>
    </g>
    <g clip-path="url(#g)">
      <g clip-path="url(#h)">
        <g clip-path="url(#i)" transform="translate(736 171)">
          <g clip-path="url(#j)">
            <g clip-path="url(#k)">
              <path fill="var(--logo-accent)" d="M.254.012h194.082V253.23H.254Zm0 0" />
            </g>
          </g>
        </g>
      </g>
    </g>
  </g>
</svg>
